<svg width="37" height="20" viewBox="0 0 37 20" fill="none" xmlns="http://www.w3.org/2000/svg">
<path d="M20.4271 9.98052C20.4271 15.4924 15.8952 19.9607 10.305 19.9607C4.71491 19.9607 0.182617 15.4924 0.182617 9.98052C0.182617 4.4686 4.71457 0 10.305 0C15.8955 0 20.4271 4.4686 20.4271 9.98052Z" fill="#01FFC2"/>
<path d="M31.5308 9.98084C31.5308 15.1691 29.2648 19.3767 26.4696 19.3767C23.6744 19.3767 21.4084 15.1691 21.4084 9.98084C21.4084 4.79256 23.674 0.584961 26.4693 0.584961C29.2645 0.584961 31.5305 4.79122 31.5305 9.98084" fill="#01FFC2"/>
<path d="M36.0735 9.98096C36.0735 14.6284 35.2767 18.3982 34.2935 18.3982C33.3103 18.3982 32.5138 14.6294 32.5138 9.98096C32.5138 5.33252 33.3106 1.56372 34.2935 1.56372C35.2764 1.56372 36.0735 5.33218 36.0735 9.98096Z" fill="#01FFC2"/>
</svg>
