<svg width="1354" height="205" viewBox="0 0 1354 205" fill="none" xmlns="http://www.w3.org/2000/svg">
<path fill-rule="evenodd" clip-rule="evenodd" d="M390 10H1314C1335.54 10 1353 27.4609 1353 49V156C1353 177.539 1335.54 195 1314 195H1264V196H1314C1336.09 196 1354 178.091 1354 156V49C1354 26.9086 1336.09 9 1314 9H390V10ZM90 10V9H40C17.9086 9 0 26.9086 0 49V156C0 178.091 17.9086 196 40 196H964V195H40C18.4609 195 1 177.539 1 156V49C1 27.4609 18.4609 10 40 10H90Z" fill="#7156FB"/>
<path d="M1014 195.5H1264M90 9.5H340" stroke="#7156FB" stroke-dasharray="2 2"/>
<path d="M976.479 205L970 205L975.514 195.996L970 187L976.479 187L982 195.996L976.479 205Z" fill="#7156FB"/>
<path d="M988.486 205L982 205L987.521 195.996L982 187L988.486 187L994 195.996L988.486 205Z" fill="#7156FB" fill-opacity="0.7"/>
<path d="M1000.49 205L994 205L999.514 195.996L994 187L1000.49 187L1006 195.996L1000.49 205Z" fill="#7156FB" fill-opacity="0.3"/>
<path d="M375.521 9.80426e-07L382 1.90735e-06L376.486 9.00407L382 18L375.521 18L370 9.00407L375.521 9.80426e-07Z" fill="#7156FB"/>
<path d="M363.514 9.79424e-07L370 1.90735e-06L364.479 9.00407L370 18L363.514 18L358 9.00407L363.514 9.79424e-07Z" fill="#7156FB" fill-opacity="0.7"/>
<path d="M351.514 9.79424e-07L358 1.90735e-06L352.486 9.00407L358 18L351.514 18L346 9.00407L351.514 9.79424e-07Z" fill="#7156FB" fill-opacity="0.3"/>
</svg>
