<svg width="32" height="28" viewBox="0 0 32 28" fill="none" xmlns="http://www.w3.org/2000/svg">
<path d="M1.14097 14.0244L8.21166 16.3297L10.9126 24.9823C11.24 25.9292 11.0763 26.3049 12.0322 26.3049C12.7689 26.3049 13.0962 25.9548 13.5055 25.5365C13.7657 25.2701 15.3126 23.7016 17.0404 21.9504L24.3943 27.6189C25.7472 28.3976 26.7244 27.9938 27.0616 26.3075L31.8906 2.5763C32.3816 0.509198 31.1351 -0.428299 29.8444 0.185599L1.49373 11.5876C-0.441113 12.397 -0.428836 13.5223 1.14097 14.0244ZM25.2561 5.30939C26.0517 4.80649 26.7809 5.07715 26.1826 5.63128L12.5372 18.4745L12.006 24.3864L9.32067 15.7978L25.2561 5.30939Z" fill="#01FFC2"/>
</svg>
